<svg width="0" height="0" class="hidden"><symbol xmlns="http://www.w3.org/2000/svg" viewBox="0 0 32 32" id="arrow_left"><title>4-Arrow Left</title><g id="_4-Arrow_Left"><path d="M32,15H3.41l8.29-8.29L10.29,5.29l-10,10a1,1,0,0,0,0,1.41l10,10,1.41-1.41L3.41,17H32Z"></path></g></symbol><symbol xmlns="http://www.w3.org/2000/svg" viewBox="0 0 32 32" id="arrow_right"><title>3-Arrow Right</title><g id="_3-Arrow_Right"><path d="M31.71,15.29l-10-10L20.29,6.71,28.59,15H0v2H28.59l-8.29,8.29,1.41,1.41,10-10A1,1,0,0,0,31.71,15.29Z"></path></g></symbol><symbol id="icon_facebook" xmlns="http://www.w3.org/2000/svg" viewBox="0 0 24 24"><path id="primary" d="M14,6h3a1,1,0,0,0,1-1V3a1,1,0,0,0-1-1H14A5,5,0,0,0,9,7v3H7a1,1,0,0,0-1,1v2a1,1,0,0,0,1,1H9v7a1,1,0,0,0,1,1h2a1,1,0,0,0,1-1V14h2.22a1,1,0,0,0,1-.76l.5-2a1,1,0,0,0-1-1.24H13V7A1,1,0,0,1,14,6Z"></path></symbol><symbol xmlns="http://www.w3.org/2000/svg" viewBox="0 0 24 24" id="icon_instagram"><path d="M16.65 7.2H16.66M8 20H16C18.2091 20 20 18.2091 20 16V8C20 5.79086 18.2091 4 16 4H8C5.79086 4 4 5.79086 4 8V16C4 18.2091 5.79086 20 8 20ZM15.75 12C15.75 14.0711 14.0711 15.75 12 15.75C9.92893 15.75 8.25 14.0711 8.25 12C8.25 9.92893 9.92893 8.25 12 8.25C14.0711 8.25 15.75 9.92893 15.75 12Z" stroke-width="2" stroke-linecap="round" stroke-linejoin="round"></path></symbol><symbol version="1.1" xmlns="http://www.w3.org/2000/svg" viewBox="0 0 32 32" id="icon_twitter"><title>twitter</title><path d="M30.917 6.728c-1.026 0.465-2.217 0.805-3.464 0.961l-0.061 0.006c1.268-0.771 2.222-1.952 2.687-3.354l0.013-0.044c-1.124 0.667-2.431 1.179-3.82 1.464l-0.082 0.014c-1.123-1.199-2.717-1.946-4.485-1.946-3.391 0-6.14 2.749-6.14 6.14 0 0.496 0.059 0.979 0.17 1.441l-0.008-0.042c-5.113-0.254-9.613-2.68-12.629-6.366l-0.025-0.031c-0.522 0.873-0.831 1.926-0.831 3.052 0 0.013 0 0.026 0 0.039v-0.002c0 0.001 0 0.003 0 0.005 0 2.12 1.075 3.989 2.709 5.093l0.022 0.014c-1.026-0.034-1.979-0.315-2.811-0.785l0.031 0.016v0.075c0 0.001 0 0.002 0 0.002 0 2.961 2.095 5.434 4.884 6.014l0.040 0.007c-0.484 0.135-1.040 0.212-1.614 0.212-0.406 0-0.802-0.039-1.186-0.113l0.039 0.006c0.813 2.459 3.068 4.212 5.739 4.264l0.006 0c-2.072 1.638-4.721 2.627-7.602 2.627-0.005 0-0.009 0-0.014 0h0.001c-0.515-0.001-1.022-0.031-1.521-0.089l0.061 0.006c2.663 1.729 5.92 2.757 9.418 2.757 0.005 0 0.009 0 0.014 0h-0.001c0.037 0 0.082 0 0.126 0 9.578 0 17.343-7.765 17.343-17.343 0-0.039-0-0.077-0-0.116l0 0.006c0-0.262 0-0.524-0.019-0.786 1.21-0.878 2.229-1.931 3.042-3.136l0.028-0.044z"></path></symbol><symbol xmlns="http://www.w3.org/2000/svg" id="phone" x="0" y="0" version="1.1" xml:space="preserve" viewBox="0 0 29 29"><path d="m20.914 17.743-2.091 1.178a1.319 1.319 0 0 1-1.58-.217l-6.979-6.979a1.32 1.32 0 0 1-.217-1.58l1.178-2.091a1.978 1.978 0 0 0-.325-2.37L7.766 2.55a1.978 1.978 0 0 0-2.798 0L3.545 3.972a5.276 5.276 0 0 0-.793 6.446l.714 1.19a41.36 41.36 0 0 0 14.946 14.631l.141.081c2.102 1.201 4.699.851 6.382-.831l1.486-1.486a1.978 1.978 0 0 0 0-2.798l-3.136-3.136a1.978 1.978 0 0 0-2.371-.326z"></path></symbol><symbol xmlns="http://www.w3.org/2000/svg" viewBox="0 0 50 50" id="telegram"><path d="M46.137,6.552c-0.75-0.636-1.928-0.727-3.146-0.238l-0.002,0C41.708,6.828,6.728,21.832,5.304,22.445	c-0.259,0.09-2.521,0.934-2.288,2.814c0.208,1.695,2.026,2.397,2.248,2.478l8.893,3.045c0.59,1.964,2.765,9.21,3.246,10.758	c0.3,0.965,0.789,2.233,1.646,2.494c0.752,0.29,1.5,0.025,1.984-0.355l5.437-5.043l8.777,6.845l0.209,0.125	c0.596,0.264,1.167,0.396,1.712,0.396c0.421,0,0.825-0.079,1.211-0.237c1.315-0.54,1.841-1.793,1.896-1.935l6.556-34.077	C47.231,7.933,46.675,7.007,46.137,6.552z M22,32l-3,8l-3-10l23-17L22,32z"></path></symbol><symbol xmlns="http://www.w3.org/2000/svg" viewBox="0 0 50 50" id="watch"><path d="M25,2C12.318,2,2,12.317,2,25s10.318,23,23,23s23-10.317,23-23S37.682,2,25,2z M37.735,12.679L27.644,23.61 C27.864,24.027,28,24.496,28,25c0,0.76-0.292,1.447-0.758,1.976l3.632,6.539c0.269,0.482,0.094,1.091-0.388,1.359 C30.332,34.96,30.165,35,30.001,35c-0.352,0-0.692-0.186-0.875-0.515l-3.631-6.535C25.333,27.977,25.17,28,25,28 c-1.657,0-3-1.343-3-3s1.343-3,3-3c0.42,0,0.82,0.088,1.183,0.244l10.082-10.923c0.375-0.404,1.007-0.431,1.413-0.056 C38.084,11.64,38.109,12.272,37.735,12.679z"></path></symbol></svg>